# xmcd
# 
# Track frame offsets:
#     150
#     12513
#     25184
#     39138
#     51500
#     62826
#     77165
#     89947
#     102730
#     112944
# 
# Disc length: 1675
# 
# Revision: 2
# Processed by: cddbd v1.5.2PL0 Copyright (c) Steve Scherf et al.
# Submitted via: BonkEnc v1.0
# 
DISCID=8506890a
DTITLE=Django Reinhardt - Chefs d'oeuvre et insolites
DYEAR=2003
DGENRE=Jazz
TTITLE0=Moi aussi
TTITLE1=Confessin
TTITLE2=Cette chanson est pour vous Madame
TTITLE3=Bouncing around
TTITLE4=I'll see you in my dreams
TTITLE5=Vous et moi
TTITLE6=Blues en mineur
TTITLE7=Place de Broukère
TTITLE8=Ride red ride
TTITLE9=Folie à Amphion
EXTD=
EXTT0=
EXTT1=
EXTT2=
EXTT3=
EXTT4=
EXTT5=
EXTT6=
EXTT7=
EXTT8=
EXTT9=
PLAYORDER=
